<svg id="Layer_1" viewBox="0 0 24 24" xmlns="http://www.w3.org/2000/svg" data-name="Layer 1"><path d="m15.06 14.688c1.565-1.56 2.846-2.909 3.884-4.049-.222-.882-.763-2.482-1.935-3.631-1.192-1.169-2.844-1.696-3.74-1.908-1.127 1.021-2.453 2.275-3.984 3.799-6.178 6.199-7.661 8.426-7.721 8.518-.088.135-.143.289-.159.449l-.4 4.035c-.029.297.075.591.285.803.188.19.445.296.71.296.03 0 .061-.001.091-.004l3.997-.365c.167-.016.326-.072.465-.165.093-.062 2.334-1.584 8.507-7.778z"/><path d="m20.489 8.892c1.65-1.927 2.302-2.914 2.347-2.983.134-.205.188-.452.152-.693-.026-.178-.289-1.766-1.396-2.886-1.127-1.104-2.687-1.304-2.86-1.323-.229-.025-.46.029-.652.154-.07.045-1.076.704-3.047 2.385 1.063.384 2.336 1.016 3.375 2.035 1.04 1.02 1.686 2.268 2.08 3.311z"/><path d="m4.732 10.709c.885-.935 1.922-2.003 3.136-3.221 1.052-1.048 2.01-1.971 2.876-2.782-.451-.42-.897-.834-1.316-1.22l-2.221 2.221c-.195.195-.451.293-.707.293s-.512-.098-.707-.293c-.391-.391-.391-1.023 0-1.414l2.16-2.16c-.59-.539-.969-.881-.974-.886-.232-.202-.544-.288-.845-.229-.081.015-1.994.392-3.359 1.757-1.363 1.362-1.742 3.277-1.757 3.358-.061.319.037.647.262.881.002.002 1.978 2.107 3.453 3.695z"/><path d="m21.627 15.787-2.42 2.42c-.195.195-.451.293-.707.293s-.512-.098-.707-.293c-.391-.391-.391-1.023 0-1.414l2.48-2.48c-.325-.353-.664-.718-1.003-1.082-.816.866-1.744 1.823-2.799 2.874-1.211 1.215-2.274 2.254-3.204 3.141 1.922 1.799 3.718 3.474 3.72 3.476.188.18.437.277.691.277.062 0 .125-.006.187-.018.081-.015 1.993-.392 3.359-1.757 1.362-1.362 1.741-3.277 1.757-3.358.058-.302-.027-.615-.229-.847-.006-.006-.456-.502-1.125-1.234z"/></svg>