<?xml version="1.0" encoding="UTF-8"?>
<svg id="Capa_2" data-name="Capa 2" xmlns="http://www.w3.org/2000/svg" viewBox="0 0 311.13 317.01">
  <g id="Capa_1-2" data-name="Capa 1">
    <g>
      <path d="m76.81,152.69H.03c1.33-33.55,11.72-63.64,31.3-91.12,14.07,16.51,32.46,26.21,51.18,34.29-1.92,19.13-3.79,37.82-5.7,56.83Z"/>
      <path d="m280.22,62.23c19.35,27.19,29.43,57.15,30.91,90.4h-76.98c-.55-7.97-.87-15.8-1.67-23.58-.99-9.54-2.28-19.05-3.66-28.55-.4-2.75.01-4.1,2.84-5.3,20-8.45,30.31-15.56,48.56-32.98Z"/>
      <path d="m76.65,165.09c1.67,19.07,3.3,37.76,4.98,56.88-18.36,8.1-36.13,18.18-50.09,34.31C11.8,228.85,1.44,198.69,0,165.09h76.65Z"/>
      <path d="m311.13,165.06c-1.53,33.4-11.66,63.42-31.04,90.5-13.23-15.07-29.93-24.55-47.79-32.26-1.96-.85-3.19-1.55-2.93-4.24,1.67-17.46,3.1-34.95,4.61-52.43.04-.47.18-.94.3-1.57h76.85Z"/>
      <path d="m161.68,314.26v-95.09c18.44.69,36.03,4.51,53.48,10.57-5.74,25.05-13.32,49-30.18,68.86-6.12,7.21-13.36,12.95-23.3,15.66Z"/>
      <path d="m161.74,98.69V3.44c5.63,1.29,10.13,4.06,14.27,7.48,8.71,7.19,14.97,16.31,20.23,26.15,8.7,16.26,14.09,33.69,18.21,51.97-17.02,5.82-34.37,9.05-52.71,9.65Z"/>
      <path d="m149.18,314.12c-6.99-1.77-12.54-5.45-17.54-10.03-9.74-8.92-16.38-20-21.82-31.86-6.26-13.62-10.45-27.92-13.61-42.9,17.14-6.05,34.64-9.32,52.98-10.14v94.93Z"/>
      <path d="m149.2,98.62c-17.92-.68-35.01-4.57-52.42-10.53,2.58-8.81,4.83-17.46,7.64-25.93,5.19-15.7,12.03-30.6,22.8-43.38,5.85-6.94,12.58-12.74,21.98-15.37v95.21Z"/>
      <path d="m272.37,52.25c-9.11,12.21-28.96,26.03-46.38,32.31-8.25-31-17.77-61.41-42.57-84.12,35.71,6.79,65.07,24.36,88.95,51.81Z"/>
      <path d="m85.66,83.58c-17.16-5.68-37.64-19.67-46.52-31.82C62.86,24.7,92.09,7.17,128.56,0c-25.25,22.82-34.75,52.69-42.9,83.58Z"/>
      <path d="m127.1,317.01c-35.28-6.73-64.28-24.18-87.92-51.09,12.19-15,28.01-24.42,45.49-32.2,7.78,31.11,17.62,60.99,42.44,83.29Z"/>
      <path d="m272.54,265.22c-23.91,27.39-52.97,44.96-88.47,51.72,12.3-10.53,21.3-23.49,27.43-38.16,6.02-14.4,10.82-29.31,16.23-44.2,16.1,7.21,32.39,15.6,44.81,30.64Z"/>
      <path d="m161.69,207.05v-41.9h60.24c.06,17.5-1.5,34.87-4.44,52.44-18.3-6.13-36.68-9.67-55.79-10.54Z"/>
      <path d="m217.58,101.26c1.65,17.17,3.28,34.09,4.94,51.35h-60.68c-.11-1.03-.3-1.98-.3-2.93-.02-11.84.01-23.67-.04-35.51,0-2.06.06-3.56,2.82-3.65,17.41-.57,34.35-3.86,50.94-9.06.34-.11.72-.07,2.33-.2Z"/>
      <path d="m149.35,110.74v41.89h-60.42c1.69-17.49,3.36-34.73,5.08-52.5,18.63,6.08,36.58,9.81,55.34,10.61Z"/>
      <path d="m149.32,165.16v41.92c-18.79,1-37.11,4.14-55.33,10.35-3.13-17.33-4.31-34.61-4.59-52.28h59.93Z"/>
    </g>
  </g>
</svg>